<svg width="59" height="58" viewBox="0 0 59 58" fill="none" xmlns="http://www.w3.org/2000/svg">
<path d="M29.195 0.722569C13.0648 0.722569 0 13.7946 0 29.9176C0 42.8193 8.36437 53.7602 19.9621 57.6163C21.4218 57.8912 21.9571 56.9886 21.9571 56.2125C21.9571 55.5192 21.9327 53.6823 21.9206 51.2494C13.7995 53.0108 12.0867 47.3324 12.0867 47.3324C10.7584 43.9628 8.83879 43.0626 8.83879 43.0626C6.19421 41.2525 9.04315 41.289 9.04315 41.289C11.9748 41.4934 13.5149 44.2961 13.5149 44.2961C16.1181 48.7605 20.3489 47.4711 22.0179 46.7242C22.2807 44.8362 23.0324 43.5492 23.8669 42.8193C17.3832 42.0895 10.5686 39.5787 10.5686 28.3921C10.5686 25.205 11.6999 22.6018 13.5732 20.5581C13.2448 19.821 12.2595 16.8528 13.8287 12.8312C13.8287 12.8312 16.2738 12.0478 21.8573 15.8237C24.1929 15.1741 26.6745 14.853 29.1561 14.8384C31.6376 14.853 34.1192 15.1741 36.4548 15.8237C42.0019 12.0478 44.447 12.8312 44.447 12.8312C46.0162 16.8528 45.0309 19.821 44.7389 20.5581C46.6001 22.6018 47.7314 25.205 47.7314 28.3921C47.7314 39.6079 40.9071 42.0773 34.4112 42.795C35.433 43.6708 36.3818 45.4615 36.3818 48.1961C36.3818 52.1033 36.3453 55.2418 36.3453 56.1906C36.3453 56.9125 36.7986 57.764 38.1019 57.6163C38.1822 57.6073 38.2656 57.5944 38.3525 57.5774C50.0329 53.748 58.39 42.7999 58.39 29.9176C58.39 13.7946 45.3179 0.722569 29.195 0.722569Z" fill="white"/>
</svg>
