<svg width="24" height="24" viewBox="0 0 24 24" fill="none" xmlns="http://www.w3.org/2000/svg">
<mask id="path-1-inside-1_203_6" fill="white">
<path d="M12 0.296997C5.37 0.296997 0 5.67 0 12.297C0 17.6 3.438 22.097 8.205 23.682C8.805 23.795 9.025 23.424 9.025 23.105C9.025 22.82 9.015 22.065 9.01 21.065C5.672 21.789 4.968 19.455 4.968 19.455C4.422 18.07 3.633 17.7 3.633 17.7C2.546 16.956 3.717 16.971 3.717 16.971C4.922 17.055 5.555 18.207 5.555 18.207C6.625 20.042 8.364 19.512 9.05 19.205C9.158 18.429 9.467 17.9 9.81 17.6C7.145 17.3 4.344 16.268 4.344 11.67C4.344 10.36 4.809 9.29 5.579 8.45C5.444 8.147 5.039 6.927 5.684 5.274C5.684 5.274 6.689 4.952 8.984 6.504C9.944 6.237 10.964 6.105 11.984 6.099C13.004 6.105 14.024 6.237 14.984 6.504C17.264 4.952 18.269 5.274 18.269 5.274C18.914 6.927 18.509 8.147 18.389 8.45C19.154 9.29 19.619 10.36 19.619 11.67C19.619 16.28 16.814 17.295 14.144 17.59C14.564 17.95 14.954 18.686 14.954 19.81C14.954 21.416 14.939 22.706 14.939 23.096C14.939 23.3927 15.1253 23.7427 15.661 23.682C15.694 23.6783 15.7283 23.673 15.764 23.666C20.565 22.092 24 17.592 24 12.297C24 5.67 18.627 0.296997 12 0.296997Z"/>
</mask>
<path d="M12 0.296997C5.37 0.296997 0 5.67 0 12.297C0 17.6 3.438 22.097 8.205 23.682C8.805 23.795 9.025 23.424 9.025 23.105C9.025 22.82 9.015 22.065 9.01 21.065C5.672 21.789 4.968 19.455 4.968 19.455C4.422 18.07 3.633 17.7 3.633 17.7C2.546 16.956 3.717 16.971 3.717 16.971C4.922 17.055 5.555 18.207 5.555 18.207C6.625 20.042 8.364 19.512 9.05 19.205C9.158 18.429 9.467 17.9 9.81 17.6C7.145 17.3 4.344 16.268 4.344 11.67C4.344 10.36 4.809 9.29 5.579 8.45C5.444 8.147 5.039 6.927 5.684 5.274C5.684 5.274 6.689 4.952 8.984 6.504C9.944 6.237 10.964 6.105 11.984 6.099C13.004 6.105 14.024 6.237 14.984 6.504C17.264 4.952 18.269 5.274 18.269 5.274C18.914 6.927 18.509 8.147 18.389 8.45C19.154 9.29 19.619 10.36 19.619 11.67C19.619 16.28 16.814 17.295 14.144 17.59C14.564 17.95 14.954 18.686 14.954 19.81C14.954 21.416 14.939 22.706 14.939 23.096C14.939 23.3927 15.1253 23.7427 15.661 23.682C15.694 23.6783 15.7283 23.673 15.764 23.666C20.565 22.092 24 17.592 24 12.297C24 5.67 18.627 0.296997 12 0.296997Z" fill="white"/>
<path d="M8.205 27.182H15.661V20.182H8.205V27.182ZM8.205 23.682L5.99642 30.3244L6.44494 30.4736L6.90944 30.5611L8.205 23.682ZM9.01 21.065L16.0099 21.03L15.9667 12.3933L7.52623 14.2241L9.01 21.065ZM4.968 19.455L11.6698 17.4336L11.5863 17.1567L11.4802 16.8877L4.968 19.455ZM3.633 17.7L-0.32074 23.4765L0.14736 23.7969L0.660939 24.0377L3.633 17.7ZM3.717 16.971L4.20379 9.98794L4.00545 9.97412L3.80666 9.97157L3.717 16.971ZM5.555 18.207L-0.579861 21.578L-0.536943 21.6561L-0.49205 21.7331L5.555 18.207ZM9.05 19.205L11.9094 25.5944L15.4487 24.0104L15.9832 20.1699L9.05 19.205ZM9.81 17.6L14.4184 22.869L26.3657 12.4195L10.593 10.6439L9.81 17.6ZM5.579 8.45L10.7391 13.1801L13.8418 9.79533L11.9731 5.60115L5.579 8.45ZM5.684 5.274L3.54816 -1.3922L0.374337 -0.375313L-0.837141 2.72945L5.684 5.274ZM8.984 6.504L5.0627 12.3026L7.74271 14.1149L10.8597 13.248L8.984 6.504ZM11.984 6.099L12.0252 -0.900882L11.984 -0.901124L11.9428 -0.900882L11.984 6.099ZM14.984 6.504L13.1083 13.248L16.2378 14.1184L18.9229 12.2906L14.984 6.504ZM18.269 5.274L24.7901 2.72945L23.5787 -0.375312L20.4048 -1.3922L18.269 5.274ZM18.389 8.45L11.8808 5.8725L10.2724 9.93375L13.2136 13.1633L18.389 8.45ZM14.144 17.59L13.3753 10.6323L-2.66216 12.4043L9.58846 22.9048L14.144 17.59ZM15.764 23.666L17.1046 30.5364L17.5314 30.4531L17.9447 30.3176L15.764 23.666ZM15.661 23.682L16.4489 30.6375L15.661 23.682ZM12 -6.703C1.50287 -6.703 -7 1.80514 -7 12.297H7C7 9.53485 9.23713 7.297 12 7.297V-6.703ZM-7 12.297C-7 20.703 -1.54708 27.8163 5.99642 30.3244L10.4136 17.0395C8.42308 16.3777 7 14.497 7 12.297H-7ZM6.90944 30.5611C8.79893 30.9169 11.4148 30.6802 13.5556 28.7288C15.4836 26.9713 16.025 24.716 16.025 23.105H2.025C2.025 21.8129 2.45637 19.9027 4.12436 18.3822C6.00516 16.6678 8.21107 16.5601 9.50056 16.8029L6.90944 30.5611ZM16.025 23.105C16.025 22.9216 16.022 22.6144 16.0191 22.2905C16.016 21.9435 16.0123 21.5159 16.0099 21.03L2.01009 21.1C2.01572 22.226 2.025 22.8143 2.025 23.105H16.025ZM7.52623 14.2241C7.50903 14.2278 7.8672 14.1497 8.46463 14.2803C9.08564 14.416 9.69487 14.7188 10.2112 15.1478C10.6957 15.5504 11.0104 15.9886 11.2131 16.3446C11.317 16.527 11.4026 16.7072 11.4749 16.8822C11.5114 16.9706 11.5455 17.0602 11.5776 17.1512C11.5937 17.1969 11.6094 17.2431 11.6248 17.2901C11.6324 17.3136 11.64 17.3372 11.6475 17.3611C11.6512 17.3731 11.655 17.3851 11.6587 17.3972C11.6605 17.4032 11.6624 17.4093 11.6642 17.4153C11.6652 17.4183 11.6666 17.4229 11.667 17.4244C11.6684 17.429 11.6698 17.4336 4.968 19.455C-1.73377 21.4764 -1.73239 21.481 -1.731 21.4856C-1.73053 21.4872 -1.72912 21.4918 -1.72818 21.4949C-1.72629 21.5011 -1.72438 21.5074 -1.72243 21.5137C-1.71855 21.5263 -1.71455 21.5392 -1.71045 21.5522C-1.70225 21.5784 -1.69361 21.6054 -1.68451 21.6333C-1.66633 21.689 -1.64627 21.7483 -1.62419 21.8108C-1.58012 21.9357 -1.52758 22.0748 -1.46532 22.2256C-1.34154 22.5253 -1.17483 22.8822 -0.952782 23.2722C-0.513774 24.0431 0.185596 25.0196 1.26333 25.9152C3.70522 27.9444 6.97789 28.6685 10.4938 27.9059L7.52623 14.2241ZM11.4802 16.8877C10.8522 15.2946 9.98392 14.0472 9.04666 13.1095C8.58702 12.6497 8.13139 12.2848 7.7119 11.9984C7.50265 11.8555 7.30322 11.7327 7.11754 11.6276C7.0247 11.575 6.93528 11.5268 6.84973 11.4827C6.80696 11.4607 6.76515 11.4396 6.72435 11.4196C6.70396 11.4095 6.68381 11.3998 6.66393 11.3902C6.65399 11.3854 6.64411 11.3807 6.6343 11.3761C6.62939 11.3737 6.6245 11.3714 6.61963 11.3691C6.61719 11.368 6.61355 11.3663 6.61233 11.3657C6.6087 11.364 6.60506 11.3623 3.633 17.7C0.660939 24.0377 0.65731 24.036 0.653686 24.0343C0.65248 24.0338 0.648854 24.032 0.646443 24.0309C0.641618 24.0286 0.636801 24.0264 0.631991 24.0241C0.622371 24.0195 0.612781 24.0149 0.60322 24.0103C0.584099 24.0012 0.565095 23.9919 0.546207 23.9826C0.508432 23.9641 0.471116 23.9453 0.434254 23.9263C0.360536 23.8883 0.288593 23.8494 0.218397 23.8096C0.0779984 23.7301 -0.0555284 23.647 -0.182278 23.5605C-0.436768 23.3867 -0.661022 23.2009 -0.85516 23.0067C-1.26142 22.6003 -1.46217 22.2304 -1.54423 22.0223L11.4802 16.8877ZM7.58674 11.9235C7.66026 11.9738 7.91489 12.1516 8.23191 12.4633C8.49908 12.726 9.16772 13.4265 9.64752 14.5762C10.2007 15.9016 10.4991 17.8853 9.59313 19.9524C8.78305 21.8006 7.42439 22.745 6.72886 23.1408C6.00182 23.5544 5.37234 23.7298 5.07865 23.8022C4.74222 23.8851 4.47273 23.9211 4.31722 23.9382C4.14986 23.9566 4.01164 23.9641 3.91286 23.9675C3.86034 23.9694 3.81084 23.9703 3.76457 23.9707C3.74123 23.971 3.7182 23.971 3.69547 23.971C3.68408 23.9709 3.67272 23.9709 3.66138 23.9708C3.65571 23.9707 3.65004 23.9707 3.64437 23.9706C3.64153 23.9706 3.6387 23.9706 3.63586 23.9705C3.63444 23.9705 3.63231 23.9705 3.6316 23.9705C3.62947 23.9704 3.62734 23.9704 3.717 16.971C3.80666 9.97157 3.80452 9.97154 3.80237 9.97152C3.80165 9.97151 3.79949 9.97148 3.79803 9.97147C3.79513 9.97143 3.79218 9.9714 3.7892 9.97137C3.78325 9.97131 3.77716 9.97125 3.77093 9.9712C3.75847 9.97111 3.74545 9.97104 3.73188 9.971C3.70478 9.97093 3.67531 9.971 3.64366 9.97127C3.58077 9.97181 3.50717 9.97319 3.42475 9.97606C3.26618 9.98159 3.04497 9.99369 2.78481 10.0223C2.54191 10.0491 1.20512 10.1762 -0.194105 10.9722C-0.968076 11.4126 -2.38819 12.4132 -3.22934 14.3324C-4.16642 16.4704 -3.86867 18.5396 -3.27243 19.9683C-2.3717 22.1265 -0.651574 23.2501 -0.32074 23.4765L7.58674 11.9235ZM3.23021 23.9541C1.61605 23.8415 0.606644 23.0244 0.223387 22.6541C0.00806387 22.446 -0.146587 22.2514 -0.256614 22.0975C-0.314851 22.0161 -0.369356 21.9337 -0.421315 21.85C-0.447523 21.8078 -0.473687 21.7643 -0.49992 21.7193C-0.513057 21.6968 -0.526271 21.6738 -0.539573 21.6502C-0.546226 21.6385 -0.552908 21.6266 -0.55962 21.6145C-0.562976 21.6085 -0.566341 21.6025 -0.569714 21.5964C-0.571401 21.5933 -0.57309 21.5903 -0.574781 21.5872C-0.575625 21.5857 -0.576898 21.5834 -0.577319 21.5826C-0.578589 21.5803 -0.579861 21.578 5.555 18.207C11.6899 14.836 11.6886 14.8337 11.6873 14.8314C11.6869 14.8306 11.6856 14.8283 11.6847 14.8267C11.683 14.8235 11.6812 14.8204 11.6795 14.8172C11.676 14.8108 11.6724 14.8044 11.6687 14.7978C11.6614 14.7846 11.6538 14.7711 11.6459 14.7571C11.6301 14.7293 11.6132 14.6998 11.5951 14.6688C11.559 14.6068 11.5181 14.5385 11.4722 14.4646C11.3809 14.3176 11.2676 14.1446 11.1311 13.9539C10.8648 13.5814 10.4766 13.0935 9.95236 12.5869C8.95136 11.6196 7.02295 10.1845 4.20379 9.98794L3.23021 23.9541ZM-0.49205 21.7331C1.21399 24.6588 3.966 26.226 6.82308 26.4814C9.19722 26.6937 11.0904 25.9609 11.9094 25.5944L6.19062 12.8156C6.32362 12.7561 7.00428 12.4418 8.06992 12.5371C8.69164 12.5927 9.44518 12.7917 10.1782 13.2519C10.9163 13.7153 11.3657 14.2756 11.602 14.6809L-0.49205 21.7331ZM15.9832 20.1699C15.9032 20.7448 15.5643 21.8667 14.4184 22.869L5.20156 12.331C3.36967 13.9332 2.41283 16.1132 2.11683 18.2401L15.9832 20.1699ZM10.593 10.6439C10.4107 10.6234 10.2745 10.6018 10.1745 10.5819C10.1257 10.5722 10.0896 10.5637 10.0648 10.5573C10.04 10.5509 10.0288 10.5472 10.0295 10.5475C10.0303 10.5477 10.045 10.5526 10.0714 10.5637C10.0978 10.5748 10.1374 10.5927 10.1873 10.6191C10.2885 10.6728 10.4296 10.7602 10.5867 10.8925C10.7464 11.0269 10.8998 11.1888 11.0331 11.3722C11.1663 11.5555 11.2539 11.7251 11.3075 11.8569C11.4132 12.1169 11.344 12.1197 11.344 11.67H-2.656C-2.656 15.5012 -1.41064 19.0921 1.56856 21.601C4.21154 23.8268 7.27994 24.3594 9.02695 24.5561L10.593 10.6439ZM11.344 11.67C11.344 11.8605 11.3067 12.1439 11.1804 12.4625C11.0558 12.7771 10.8872 13.0184 10.7391 13.1801L0.418921 3.71992C-1.49143 5.80395 -2.656 8.54594 -2.656 11.67H11.344ZM11.9731 5.60115C12.2108 6.13463 12.2997 6.55376 12.3228 6.89165C12.3495 7.28408 12.2879 7.6064 12.2051 7.81854L-0.837141 2.72945C-2.3172 6.52253 -1.51808 9.72096 -0.815067 11.2988L11.9731 5.60115ZM5.684 5.274C7.81984 11.9402 7.81312 11.9423 7.8064 11.9445C7.80417 11.9452 7.79745 11.9473 7.79297 11.9487C7.78402 11.9516 7.77507 11.9544 7.76613 11.9572C7.74824 11.9627 7.73036 11.9682 7.7125 11.9736C7.67677 11.9844 7.64111 11.9949 7.60551 12.0051C7.53432 12.0254 7.46345 12.0443 7.39296 12.0619C7.25187 12.0972 7.11277 12.127 6.97594 12.1517C6.7015 12.2013 6.44067 12.2295 6.19608 12.2407C5.7024 12.2632 5.30686 12.215 5.02874 12.1563C4.48398 12.0414 4.47781 11.907 5.0627 12.3026L12.9053 0.705427C11.1952 -0.451041 9.53902 -1.20041 7.91801 -1.54231C7.10177 -1.71447 6.31154 -1.77919 5.5577 -1.74478C5.18303 -1.72768 4.82576 -1.68645 4.4874 -1.62533C4.3186 -1.59484 4.15567 -1.55961 3.99874 -1.5204C3.92032 -1.5008 3.84353 -1.48024 3.76839 -1.45883C3.73083 -1.44812 3.69369 -1.43721 3.65698 -1.4261C3.63862 -1.42054 3.62038 -1.41494 3.60224 -1.40929C3.59317 -1.40646 3.58413 -1.40363 3.57512 -1.40078C3.57062 -1.39935 3.56387 -1.39721 3.56162 -1.3965C3.55489 -1.39435 3.54816 -1.3922 5.684 5.274ZM10.8597 13.248C11.1709 13.1615 11.5697 13.1016 12.0252 13.0989L11.9428 -0.900882C10.3583 -0.891561 8.71708 -0.687462 7.10832 -0.240024L10.8597 13.248ZM11.9428 13.0989C12.3983 13.1016 12.7971 13.1615 13.1083 13.248L16.8597 -0.240024C15.2509 -0.687462 13.6097 -0.891561 12.0252 -0.900882L11.9428 13.0989ZM18.9229 12.2906C19.4972 11.8997 19.4832 12.0384 18.931 12.1553C18.6494 12.2149 18.2515 12.2633 17.7566 12.2406C17.5114 12.2294 17.2503 12.2011 16.976 12.1515C16.8392 12.1268 16.7002 12.097 16.5593 12.0617C16.4889 12.0441 16.4181 12.0252 16.3471 12.005C16.3115 11.9948 16.2759 11.9844 16.2403 11.9736C16.2225 11.9682 16.2046 11.9627 16.1868 11.9571C16.1778 11.9543 16.1689 11.9515 16.16 11.9487C16.1555 11.9473 16.1488 11.9452 16.1466 11.9445C16.1399 11.9423 16.1332 11.9402 18.269 5.274C20.4048 -1.3922 20.3981 -1.39435 20.3914 -1.39649C20.3892 -1.3972 20.3824 -1.39934 20.3779 -1.40076C20.3689 -1.4036 20.3599 -1.40643 20.3509 -1.40925C20.3328 -1.41489 20.3146 -1.42048 20.2962 -1.42603C20.2596 -1.43712 20.2225 -1.44802 20.185 -1.45871C20.11 -1.48009 20.0333 -1.50063 19.955 -1.52021C19.7983 -1.5594 19.6355 -1.59463 19.4667 -1.62513C19.1285 -1.68628 18.7711 -1.72761 18.3961 -1.74476C17.6415 -1.77927 16.8499 -1.71439 16.032 -1.54129C14.4073 -1.19741 12.7508 -0.443729 11.0451 0.717401L18.9229 12.2906ZM11.7479 7.81854C11.6645 7.605 11.6063 7.28964 11.6305 6.91538C11.6532 6.56587 11.7429 6.22073 11.8808 5.8725L24.8972 11.0275C25.4207 9.70567 26.2868 6.56499 24.7901 2.72945L11.7479 7.81854ZM13.2136 13.1633C13.0685 13.004 12.9032 12.7662 12.7806 12.456C12.6563 12.1413 12.619 11.8606 12.619 11.67H26.619C26.619 8.54778 25.4563 5.81402 23.5644 3.73669L13.2136 13.1633ZM12.619 11.67C12.619 12.1241 12.5491 12.1207 12.6561 11.8578C12.7105 11.7243 12.7994 11.5524 12.9347 11.3669C13.0702 11.1811 13.226 11.0175 13.3881 10.8817C13.5475 10.7482 13.6905 10.6603 13.7929 10.6065C13.8433 10.58 13.8831 10.5622 13.9097 10.5511C13.9362 10.5401 13.9507 10.5353 13.9512 10.5352C13.9515 10.5351 13.9398 10.5389 13.9143 10.5454C13.8888 10.5519 13.8518 10.5605 13.802 10.5702C13.6998 10.5902 13.561 10.6118 13.3753 10.6323L14.9127 24.5477C16.647 24.356 19.7246 23.8364 22.3774 21.6145C25.3738 19.1048 26.619 15.5041 26.619 11.67H12.619ZM9.58846 22.9048C8.12002 21.6461 7.954 20.2396 7.954 19.81H21.954C21.954 17.1324 21.008 14.2539 18.6995 12.2752L9.58846 22.9048ZM7.954 19.81C7.954 20.5918 7.95035 21.2991 7.94665 21.8631C7.94316 22.3959 7.939 22.8707 7.939 23.096H21.939C21.939 22.9313 21.9423 22.5661 21.9463 21.9549C21.9502 21.3749 21.954 20.6342 21.954 19.81H7.954ZM17.9447 30.3176C25.5424 27.8268 31 20.6996 31 12.297H17C17 14.4844 15.5876 16.3572 13.5833 17.0143L17.9447 30.3176ZM31 12.297C31 1.804 22.493 -6.703 12 -6.703V7.297C14.761 7.297 17 9.53599 17 12.297H31ZM7.939 23.096C7.939 24.558 8.38088 26.6516 10.0758 28.398C11.989 30.3695 14.476 30.861 16.4489 30.6375L14.8731 16.7265C16.3104 16.5637 18.4363 16.9105 20.1225 18.648C21.5903 20.1605 21.939 21.9307 21.939 23.096H7.939ZM16.4489 30.6375C16.6771 30.6117 16.8959 30.5771 17.1046 30.5364L14.4234 16.7956C14.5607 16.7688 14.7109 16.7449 14.8731 16.7265L16.4489 30.6375Z" fill="white" mask="url(#path-1-inside-1_203_6)"/>
</svg>
