<svg width="59" height="60" viewBox="0 0 59 60" fill="none" xmlns="http://www.w3.org/2000/svg">
<path d="M30.3935 27.265V35.4545H49.9683C49.3691 40.0486 47.8386 43.4118 45.5065 45.7737C42.6427 48.6376 38.1834 51.766 30.3935 51.766C18.3414 51.766 8.92104 42.046 8.92104 29.994C8.92104 17.942 18.3414 8.22195 30.3935 8.22195C36.8851 8.22195 41.6465 10.7862 45.142 14.0819L50.9021 8.32182C46.0409 3.59538 39.5142 0 30.3935 0C13.8822 0 0 13.4502 0 29.9615C0 46.4728 13.8822 59.9231 30.3935 59.9231C39.3145 59.9231 46.0409 56.9943 51.2991 51.5338C56.6922 46.1408 58.39 38.5181 58.39 32.3909C58.39 30.4934 58.2577 28.7281 57.9581 27.265H30.3935Z" fill="white"/>
</svg>
